<svg width="406" height="430" viewBox="0 0 406 430" fill="none" xmlns="http://www.w3.org/2000/svg">
<g clip-path="url(#clip0_85_3)">
<path d="M156.805 104.451C157.122 102.981 159.318 99.868 160.113 98.2895C162.225 94.096 164.558 89.9048 166.807 85.7825C171.589 77.0875 176.326 68.3673 181.018 59.623C183.841 54.4168 186.648 48.769 189.995 43.899C196.574 34.3243 207.064 34.5695 213.722 43.9225C216.698 48.1033 218.694 52.4268 221.118 56.952L230.597 74.3443L240.274 92.0663C241.697 94.668 244.28 99.1053 245.373 101.671L289.143 87.903C297.345 85.332 306.28 81.9938 314.685 80.6318C320.898 79.6253 328.253 82.169 331.868 87.3775C337.993 95.8843 334.445 106.095 331.993 115.222L327.988 130.235C324.155 144.527 320.378 159.622 316.29 173.792C316.345 173.848 316.4 173.904 316.455 173.96C335.19 184.359 354.15 194.632 372.868 205.068C385.9 212.333 386.168 225.881 373.438 233.472C368.64 236.332 363.798 238.906 358.893 241.562L339.733 252.127C337.165 253.542 320.72 262.789 319.133 263.204C323.768 277.432 328.318 291.687 332.788 305.967L337.703 321.197C340.05 328.625 343.013 337.532 339.208 345.027C337.185 348.932 333.693 351.87 329.5 353.197C321.34 355.775 310.965 352.01 302.893 349.775L280.438 343.64L258.065 337.547C255.388 336.817 249.26 335.315 246.868 334.385C245.803 337.017 242.933 341.91 241.499 344.54L231.313 363.282L219.501 384.94C217.589 388.38 216.093 391.679 213.789 394.892C210.044 400.114 203.942 403.887 197.489 401.207C190.906 398.475 187.594 391.462 184.418 385.579L177.629 372.995C171.284 361.247 164.342 349.072 158.285 337.26C154.264 338.71 148.828 340.247 144.662 341.549L118.627 349.685L102.718 354.682C93.8594 357.47 83.7864 361.125 75.3904 355.125C65.3471 347.945 68.4076 335.857 71.0219 326.022C76.4534 305.587 82.1106 285.237 87.3076 264.782C86.7444 264.61 86.1304 264.33 85.6141 264.042C70.7319 255.807 55.5866 247.555 40.7544 239.28C31.6531 234.202 18.6058 229.365 21.3139 216.493C23.1407 207.81 32.7654 203.895 39.8054 200.047L57.4249 190.367L74.9159 180.709C76.9689 179.577 82.5141 176.355 84.4844 175.79C80.0161 162.589 75.8211 148.365 71.5329 135.048L66.2849 118.728C65.0319 114.78 63.8294 111.298 63.0216 107.206C60.4056 93.9538 68.8909 83.5293 82.6244 84.8408C87.6709 85.3228 91.8001 86.6345 96.6739 87.9718L111.48 92.0128C126.224 96.0333 142.283 100.094 156.805 104.451Z" fill="#EF7F8C"/>
<path d="M319.133 263.205C316.825 256.437 313.163 245.295 311.625 238.464C308.713 225.533 308.578 207.958 310.918 194.971C312.125 188.287 314.658 180.531 316.29 173.792C316.345 173.848 316.4 173.904 316.455 173.96C335.19 184.36 354.15 194.632 372.868 205.068C385.9 212.334 386.168 225.882 373.438 233.473C368.64 236.333 363.798 238.906 358.893 241.562L339.733 252.127C337.165 253.542 320.72 262.79 319.133 263.205Z" fill="#D5DEA2"/>
<path d="M158.285 337.26C159.887 336.838 161.925 336.183 163.429 335.618C185.878 327.18 210.389 324.575 233.735 330.833C237.884 331.945 242.468 333.32 246.868 334.385C245.802 337.018 242.933 341.91 241.498 344.54L231.313 363.283L219.5 384.94C217.588 388.38 216.093 391.68 213.789 394.893C210.044 400.115 203.942 403.888 197.488 401.208C190.906 398.475 187.594 391.463 184.418 385.58L177.628 372.995C171.283 361.248 164.341 349.073 158.285 337.26Z" fill="#D5DEA2"/>
<path d="M84.4844 175.79C85.7281 178.961 86.9636 183.221 87.9946 186.52C89.1391 190.18 90.6269 194.679 91.4811 198.372C95.6644 216.825 95.2396 236.025 90.2444 254.275C89.4931 257.06 88.4369 262.35 87.3076 264.783C86.7444 264.61 86.1304 264.33 85.6141 264.043C70.7319 255.808 55.5866 247.556 40.7544 239.281C31.6531 234.203 18.6058 229.366 21.3139 216.494C23.1407 207.81 32.7654 203.895 39.8054 200.048L57.4249 190.367L74.9159 180.71C76.9689 179.577 82.5141 176.356 84.4844 175.79Z" fill="#D5DEA2"/>
<path d="M156.805 104.451C157.122 102.981 159.317 99.868 160.112 98.2895C162.224 94.096 164.557 89.9048 166.806 85.7825C171.588 77.0875 176.325 68.3673 181.017 59.623C183.84 54.4168 186.647 48.769 189.994 43.899C196.574 34.3243 207.064 34.5695 213.721 43.9225C216.697 48.1033 218.693 52.4268 221.117 56.952L230.596 74.3443L240.274 92.0663C241.696 94.668 244.279 99.1053 245.372 101.671C238.082 103.718 230.123 106.795 222.801 108.565C208.406 112.046 190.482 112.326 175.886 109.5C170.323 108.423 162.52 105.93 156.805 104.451Z" fill="#D5DEA2"/>
<path d="M250.017 109.707L296.327 95.2481C301.839 93.5599 309.024 90.5611 314.607 89.7854C330.069 87.6364 326.007 102.018 323.742 110.803C318.689 130.384 312.982 149.776 308.079 169.294C306.182 176.463 303.267 186.417 302.007 193.568C299.339 208.714 299.972 228.55 303.512 243.52C305.384 251.435 308.977 260.028 311.082 267.853L324.739 310.72L328.862 323.693C330.447 328.67 333.562 336.115 330.914 341.075C329.957 342.898 328.267 344.223 326.269 344.715C320.902 346.055 306.702 341.373 300.844 339.765L268.687 330.98C263.374 329.528 256.812 327.535 251.569 326.35C245.213 324.713 236.869 322.005 230.608 320.748C214.766 317.56 194.968 317.68 179.288 321.41C173.93 322.683 168.16 324.755 162.891 326.348C161.039 326.908 155.511 328.853 153.835 329.013C151.182 330.12 145.038 331.875 142.121 332.78L122.158 339.028L102.879 345.085C98.9419 346.335 95.0124 347.67 91.0137 348.678C88.2602 349.37 84.5857 349.638 81.9219 348.385C74.7847 345.025 77.9994 335.08 79.5622 329.383C80.6562 325.393 81.6447 321.693 82.6799 317.848L90.7917 287.51C92.3384 281.718 94.1632 275.393 95.4929 269.588C96.2577 267.33 96.6104 264.85 97.3444 262.605C104.327 241.266 104.952 217.775 100.249 195.886C98.5002 187.744 94.7187 179.339 92.6179 171.093L77.7499 124.502C75.8269 118.338 73.5892 112.267 72.0697 105.993C70.0382 97.4219 74.9112 92.4741 83.6862 94.1934C91.4502 95.7146 98.9892 98.0576 106.613 100.14L152.313 112.618C159.609 113.952 167.232 117.23 174.783 118.47C191.003 121.131 208.915 121.248 224.92 117.31C233.282 115.252 241.738 112.134 250.017 109.707Z" fill="#D5DEA2"/>
<path d="M144.729 287.1C144.72 278.87 145.173 270.907 145.586 262.712C146.133 251.87 146.278 240.808 148.96 230.215C149.927 226.933 151.443 223.699 153.804 221.188C157.561 217.195 165.399 220.372 165.137 225.945C165.005 228.731 162.87 230.963 161.961 233.456C161.265 235.365 161.157 237.836 160.808 239.84C157.764 264.162 159.888 289.042 154.905 313.13C154.678 314.227 153.641 315.687 152.821 316.46C151.352 317.9 149.577 317.717 147.937 318.342C149.594 321.427 152.006 326.17 153.835 329.012C151.183 330.12 145.039 331.875 142.121 332.78L122.159 339.027L102.88 345.085C98.9427 346.335 95.0132 347.67 91.0145 348.677C88.261 349.37 84.5865 349.637 81.9227 348.385C74.7855 345.025 78.0002 335.08 79.563 329.382C80.657 325.392 81.6455 321.692 82.6807 317.847L90.7925 287.51C92.3392 281.717 94.164 275.392 95.4937 269.587C98.2995 270.842 105.589 275.322 107.529 275.82C107.985 269.415 107.688 262.972 108.025 256.527C108.461 248.177 108.361 238.884 110.049 230.691C110.715 227.461 114.687 224.745 117.844 225.494C120.827 225.975 122.293 228.094 123.289 230.732C128.545 244.658 133.444 258.735 138.828 272.61C140.671 277.36 142.502 282.55 144.729 287.1Z" fill="#EF7F8C"/>
<path d="M95.4937 269.588C98.2995 270.843 105.589 275.323 107.529 275.82C106.997 286.133 106.731 296.455 106.732 306.78C106.758 309.865 106.991 318.228 107.764 321.158C108.004 322.038 108.461 322.845 109.092 323.503C112.213 326.753 116.118 326.568 119.204 323.46C121.013 321.638 120.761 319.943 120.762 317.505C120.451 312.885 120.297 308.608 120.251 303.965C120.191 297.875 120.704 291.645 120.752 285.628C124.682 289.068 128.35 292.565 131.968 296.323C132.796 297.183 133.694 298.103 134.595 298.875C137.865 304.645 141.632 316.678 147.483 318.233C147.634 318.273 147.785 318.31 147.937 318.343C149.594 321.428 152.006 326.17 153.835 329.013C151.183 330.12 145.039 331.875 142.121 332.78L122.159 339.028L102.88 345.085C98.9427 346.335 95.0132 347.67 91.0145 348.678C88.261 349.37 84.5865 349.638 81.9227 348.385C74.7855 345.025 78.0002 335.08 79.563 329.383C80.657 325.393 81.6455 321.693 82.6807 317.848L90.7925 287.51C92.3392 281.718 94.164 275.393 95.4937 269.588Z" fill="white"/>
<path d="M121.319 264C123.214 270.9 127.315 279.8 129.855 286.628C130.78 289.113 134.395 296.763 134.595 298.875C133.693 298.103 132.795 297.183 131.968 296.323C128.349 292.565 124.681 289.068 120.752 285.628C121.267 278.54 120.882 271.062 121.319 264Z" fill="#D5DEA2"/>
<path d="M281.874 286.258C274.077 270.383 253.642 263.173 244.937 247.391C240.524 239.388 241.832 230.8 250.377 226.335C263.444 219.507 279.477 222.499 286.232 236.438C287.562 239.185 288.664 241.92 289.257 244.957C289.947 248.741 290.752 252.863 289.657 256.63C288.544 260.458 284.062 262.318 280.542 260.703C276.189 258.705 276.772 253.81 276.269 249.741C276.034 247.822 275.577 245.936 274.909 244.122C271.249 234.456 263.797 235.378 255.692 238.551C262.112 250.543 272.747 255.953 282.397 264.89C286.242 268.45 290.022 273.463 292.842 277.895C294.322 277.27 297.372 275.458 298.897 274.613L311.082 267.853L324.739 310.72L328.862 323.693C330.447 328.67 333.562 336.115 330.914 341.075C329.957 342.898 328.267 344.223 326.269 344.715C320.902 346.055 306.702 341.373 300.844 339.765L268.687 330.98C263.374 329.528 256.812 327.535 251.569 326.35C253.687 321.51 257.577 315.208 260.174 310.283C259.874 310.063 259.574 309.84 259.282 309.61C251.912 303.82 246.836 294.795 245.626 285.473C244.971 280.43 245.478 271.635 252.252 271.058C254.019 270.908 255.772 271.473 257.122 272.623C261.079 275.983 258.544 279.585 259.064 283.795C259.914 290.68 263.427 295.34 268.524 299.615C272.942 295.13 277.392 290.678 281.874 286.258Z" fill="#EF7F8C"/>
<path d="M311.083 267.853L324.74 310.72L328.863 323.693C330.448 328.67 333.563 336.115 330.915 341.075C329.958 342.898 328.268 344.223 326.27 344.715C320.903 346.055 306.703 341.373 300.845 339.765L268.688 330.98C263.375 329.528 256.813 327.535 251.57 326.35C253.688 321.51 257.578 315.208 260.175 310.283C275.52 321.94 297.863 311.69 297.468 291.943C297.368 286.868 295.245 282.31 292.843 277.895C294.323 277.27 297.373 275.458 298.898 274.613L311.083 267.853Z" fill="white"/>
<path d="M281.875 286.258C283.26 289.135 284.598 292.313 283.495 295.473C281.89 300.068 276.098 302.923 271.53 301.068C270.47 300.638 269.523 300.145 268.525 299.615C272.943 295.13 277.393 290.678 281.875 286.258Z" fill="white"/>
<path d="M250.018 109.707L296.328 95.2481C301.84 93.5599 309.025 90.5611 314.608 89.7854C330.07 87.6364 326.008 102.018 323.743 110.803C318.69 130.384 312.983 149.776 308.08 169.294C305.74 168.301 303.495 166.766 301.24 165.63C289.435 159.683 279.555 151.095 270.66 141.411C269.333 139.964 267.83 138.029 266.288 136.834C266.118 135.971 266.015 134.902 265.905 134.015C270.685 134 277.238 134.144 277.525 127.489C277.593 125.581 276.888 123.726 275.565 122.347C274.788 121.539 273.805 120.958 272.723 120.666C270.493 120.053 258.538 120.33 255.378 120.321C254.66 118.037 251.25 112.503 250.018 109.707Z" fill="white"/>
<path d="M92.6179 171.092L77.7499 124.502C75.8269 118.338 73.5892 112.267 72.0697 105.993C70.0382 97.4214 74.9112 92.4736 83.6862 94.1929C91.4502 95.7141 98.9892 98.0571 106.613 100.139L152.313 112.617C151.674 113.732 149.403 118.147 148.563 118.612C138.53 117.614 139.818 128.944 138.07 136.114C135.909 137.988 132.966 141.356 130.926 143.519C127.893 146.714 124.737 149.788 121.464 152.736C120.492 153.602 118.033 155.762 117.011 156.319C115.695 152.58 114.502 148.798 113.436 144.979C112.702 142.325 111.925 139.222 111.097 136.565C111.013 136.296 110.428 135.793 110.185 135.59C110.238 135.18 110.662 134.359 110.672 134.603C110.395 128.055 105.6 120.979 98.6414 126.107C97.3664 127.047 96.2112 129.368 96.2767 131.053C97.3652 139.983 102.032 156.122 105.447 164.067C103.094 165.166 94.7242 169.616 92.6179 171.092Z" fill="white"/>
<path d="M138.071 136.115C139.82 128.945 138.532 117.615 148.565 118.613C150.522 119.434 152.311 120.621 153.118 122.691C155.618 129.105 139.894 197.022 135.612 206.222C134.69 208.203 132.678 209.215 130.705 209.913C130.493 209.989 130.279 210.062 130.065 210.134C125.457 208.633 125.081 208.708 122.799 204.214C117.808 194.243 113.209 184.082 109.012 173.752C107.769 170.688 106.658 166.889 105.448 164.068C102.033 156.122 97.3665 139.983 96.278 131.054C96.2125 129.368 97.3678 127.048 98.6428 126.108C105.602 120.98 110.397 128.056 110.674 134.604C110.664 134.359 110.239 135.181 110.186 135.591C110.429 135.793 111.015 136.297 111.099 136.566C111.926 139.223 112.703 142.325 113.438 144.98C114.504 148.798 115.696 152.581 117.013 156.32C118.034 155.762 120.494 153.603 121.465 152.736C124.738 149.789 127.895 146.714 130.927 143.52C132.967 141.357 135.91 137.989 138.071 136.115Z" fill="#EF7F8C"/>
<path d="M138.07 136.114C138.035 138.633 137.085 143.094 136.687 145.758C135.388 154.452 133.136 162.918 131.194 171.467C130.328 175.28 128.965 180.142 128.347 183.872C126.058 180.68 117.94 160.584 117.012 156.32C118.033 155.762 120.493 153.602 121.464 152.736C124.737 149.788 127.894 146.714 130.926 143.519C132.966 141.356 135.909 137.988 138.07 136.114Z" fill="#D5DEA2"/>
<path d="M255.377 120.32C258.537 120.329 270.492 120.052 272.722 120.665C273.805 120.958 274.787 121.539 275.565 122.346C276.887 123.725 277.592 125.58 277.525 127.488C277.237 134.144 270.685 134 265.905 134.014C266.015 134.902 266.117 135.97 266.287 136.833C265.75 138.956 266.695 146.989 266.745 149.664C267.027 164.734 269.32 179.928 270.055 194.912C272.177 194.523 274.525 193.955 276.56 194.824C282.282 197.233 282.065 205.501 275.93 207.343C270.532 208.964 264.965 210.004 259.49 211.362C256.807 211.881 253.885 212.949 251.25 211.801C247.88 210.331 246.384 205.705 248.064 202.494C249.624 199.511 254.025 198.713 257.067 197.953C256.172 192.806 255.76 184.846 255.3 179.533C253.932 164.414 253.027 149.257 252.585 134.083C247.697 133.985 241.142 134.375 240.408 127.745C240.216 125.963 240.773 124.182 241.946 122.827C245.14 119.098 250.922 120.809 255.377 120.32Z" fill="#EF7F8C"/>
</g>
<defs>
<clipPath id="clip0_85_3">
<rect width="406" height="430" fill="white"/>
</clipPath>
</defs>
</svg>
